<svg enable-background="new 0 0 180 180" viewBox="44.30000305 44.75857925 90.70001221 88.44140625" xmlns="http://www.w3.org/2000/svg"><path d="M116.3 96.1c0-.2-.1-.5-.1-.8l0-11.5c0-1.2.8-2.2 1.9-2.5 0-.3 0-.5 0-.8.3-3.5 2.9-6.5 6.3-7.4.7-.2 1.4-.3 2.2-.3-6.7-15.1-21.8-25.6-39.3-25.6-23.8 0-43 19.3-43 43 0 23.8 19.3 43 43 43 20.7 0 37.9-14.6 42.1-34l-9.1 0C118.3 99.3 116.7 98 116.3 96.1z" fill="#1d6799"/><path d="M120.1 83.2c0-.2 0-.3 0-.5 0-.7 0-1.4 0-2.1.3-2.7 2.2-4.9 4.8-5.6 3.8-1 7.6 1.5 8.2 5.3.1.5.1 1 .1 1.4 0 .5 0 .9 0 1.4.1 0 .1 0 .2 0 .3 0 .7 0 1 0 .5 0 .6.2.6.7 0 1.2 0 2.4 0 3.6 0 2.6 0 5.2 0 7.8 0 .5-.2 1-.5 1.4-.4.4-.9.6-1.4.6-2.2 0-4.4 0-6.6 0-2.1 0-4.2 0-6.3 0-1 0-1.7-.6-1.9-1.6 0-.1 0-.3 0-.4 0-3.8 0-7.7 0-11.5 0-.4.2-.6.6-.6C119.2 83.2 119.7 83.2 120.1 83.2zM130.3 83.2c0-.1 0-.3 0-.4 0-.6 0-1.3 0-1.9-.2-1.7-1.6-3-3.3-3.2-2.2-.2-4 1.5-4 3.7 0 .5 0 1.1 0 1.6 0 .1 0 .1 0 .2C125.4 83.2 127.9 83.2 130.3 83.2zM126.7 93.5c.3 0 .6 0 .9 0 .3 0 .5-.2.4-.5-.1-.8-.2-1.6-.3-2.4 0-.1 0-.2.1-.3.8-.7.8-1.9.1-2.6-.7-.8-1.9-.8-2.6 0-.7.8-.6 2 .1 2.6.1.1.1.1.1.2-.1.8-.2 1.6-.3 2.5 0 .3.1.5.5.5C126.1 93.5 126.4 93.5 126.7 93.5z" fill="#f7bc37"/><path d="M79.2 44.8c1.4 0 2.5 1.2 2.4 2.6-.1 2.2.1 15.6-.1 22.7 0 .7.4 1 .8 1.4 7.3 7.4 27 28.7 34.5 35.4.8.7 1.2 1.8 1.7 2.8.5.9.9 1.9 1.5 2.6 1 1 1.1 2.5.3 3.5l0 .1c-.1.2-.3.4-.2.6.2 1.7.4 3.4.6 5.1 0 0 0 0 0 0l-2 .7c0 0 0 0 0 0-.4 1.2.2 2.1.9 3 .5.5.6 1.1.5 1.8l0 .1c-.2.8-1.1 1.3-1.9.8l0 0c-.3-.2-.6-.3-.9-.3-3.9.2-7.8.5-11.8.7-1.1.1-2.2.1-3.4.1-.2 0-.6-.1-.7-.3-1.2-1.7-2.5-3.4-3-5.5-.1-.4-.4-.7-.7-1-.4-.4-.8-.7-1.2-1.1-.9-1-1.9-1.5-3.3-1.3-.4.1-.6-.1-.7-.6-.1-.6-.4-1.2-.5-1.8-.1-.6-.4-.7-.9-.7-1.1 0-2.2 0-3.3-.1-.3 0-.6-.3-.8-.5-.9-1-1.7-2.1-2.6-3.1-.1-.2-.5-.2-.7-.2-.2 0-.4.1-.6.2-1.1.6-2.3 1-3.5.3-.2-.1-.5-.1-.8-.1-1.1.1-1.7-.5-1.8-1.6 0-.9 0-1.7-.1-2.5-.3-1.9-1.4-3.5-2.7-4.8-1-1.1-1.7-2.2-1.8-3.6 0-.4-.3-.8-.6-1.1-.6-.6-1.1-1.2-1.7-1.8-1.1-1.1-1.1-2.9 0-4l0 0c0 0 0 0 0-.1 0 0-5.2-8-5.4-9.1-.1-1.1-.7-1.6-1.9-2.1-1.7-.7-1.2-2.3-1.1-3.2 0-.3-.1-.7-.3-.8-1.3-1.2-2.7-2.3-3.9-3.6-.6-.7-.9-1.7-1.2-2.7-.1-.3.3-.9.6-1.2.6-.7.5-1.4.1-2.3-.9-2.9-1.8-4.4-2.4-5.6-.7-1.3-1-2.8-.7-4.3.5-2.9 1.4-7 1-8-.3-.8-.2-1.2.1-2.7.3-1.9.5-2.8 2.6-2.8 2.1 0 5.5 0 10.2.1C72.3 44.8 77.9 44.7 79.2 44.8z" fill="#29abe2"/><g fill="#ffffff"><path d="M60.6 92.7l4.3 1.3c-.3 1.2-.7 2.2-1.4 3s-1.4 1.4-2.3 1.8c-.9.4-2.1.6-3.5.6-1.7 0-3.1-.2-4.2-.7-1.1-.5-2-1.4-2.8-2.6-.8-1.3-1.2-2.9-1.2-4.8 0-2.6.7-4.6 2.1-6 1.4-1.4 3.4-2.1 5.9-2.1 2 0 3.6.4 4.7 1.2 1.1.8 2 2 2.5 3.7l-4.3 1c-.2-.5-.3-.8-.5-1.1-.3-.4-.6-.7-1-.9-.4-.2-.8-.3-1.3-.3-1.1 0-2 .4-2.5 1.3-.4.7-.7 1.7-.7 3.1 0 1.8.3 3 .8 3.6s1.3 1 2.2 1c.9 0 1.6-.3 2.1-.8C60.1 94.4 60.4 93.7 60.6 92.7z"/><path d="M77.3 92.7l4.3 1.3c-.3 1.2-.7 2.2-1.4 3s-1.4 1.4-2.3 1.8c-.9.4-2.1.6-3.5.6-1.7 0-3.1-.2-4.2-.7-1.1-.5-2-1.4-2.8-2.6-.8-1.3-1.2-2.9-1.2-4.8 0-2.6.7-4.6 2.1-6 1.4-1.4 3.4-2.1 5.9-2.1 2 0 3.6.4 4.7 1.2 1.1.8 2 2 2.5 3.7l-4.3 1c-.2-.5-.3-.8-.5-1.1-.3-.4-.6-.7-1-.9-.4-.2-.8-.3-1.3-.3-1.1 0-2 .4-2.5 1.3-.4.7-.7 1.7-.7 3.1 0 1.8.3 3 .8 3.6s1.3 1 2.2 1c.9 0 1.6-.3 2.1-.8C76.8 94.4 77.1 93.7 77.3 92.7z"/><path d="M83.5 83.3h8.1c1.8 0 3.1.4 4 1.3.9.8 1.3 2 1.3 3.6 0 1.6-.5 2.8-1.4 3.7-1 .9-2.4 1.3-4.4 1.3h-2.7v5.9h-4.9V83.3zM88.4 90.1h1.2c.9 0 1.6-.2 2-.5.4-.3.6-.7.6-1.3 0-.5-.2-.9-.5-1.3-.3-.3-1-.5-1.9-.5h-1.4V90.1z"/><path d="M106.9 96.5h-5.5l-.8 2.6h-5l5.9-15.8h5.3l5.9 15.8h-5.1L106.9 96.5zM105.9 93.1l-1.7-5.7-1.7 5.7H105.9z"/></g></svg>