<svg enable-background="new 0 0 180 180" viewBox="50.30000305 39.19999695 78.6000061 99.69999695" xmlns="http://www.w3.org/2000/svg"><path d="M89.6 138.9l-1.2-.5c-6.4-2.7-38.1-17.3-38.1-39.1V54.6l39.3-15.4 39.3 15.4v44.7c0 21.8-31.8 36.4-38.1 39.1L89.6 138.9zM56.4 58.7v40.6c0 7.4 5 14.9 14.8 22.3 7.2 5.4 15 9.2 18.5 10.7 3.5-1.6 11.3-5.3 18.5-10.7 9.8-7.4 14.8-14.9 14.8-22.3V58.7l-33.3-13L56.4 58.7z" fill="#ffffff"/><path d="M89.6 42.4v93.2c5.8-2.5 36.3-16.4 36.3-36.3 0-22.1 0-42.7 0-42.7L89.6 42.4z" fill="#1611d3"/><path d="M89.6 42.4v93.2c-5.8-2.5-36.3-16.4-36.3-36.3 0-22.1 0-42.7 0-42.7L89.6 42.4z" fill="#0d00a0"/><path d="M75.7 94.5c-.3.2-.7.4-1.1.5-.4.2-.8.3-1.2.4-.4.1-.9.2-1.5.3-.5.1-1.2.1-1.8.1-.8 0-1.4-.1-2.1-.3-.6-.2-1.2-.5-1.6-.8s-.9-.8-1.2-1.3c-.4-.5-.6-1-.9-1.6s-.4-1.2-.5-1.8c-.1-.6-.2-1.3-.2-1.9 0-.7.1-1.4.2-2 .1-.7.3-1.3.6-1.9s.6-1.1 1-1.6c.4-.5.8-.9 1.3-1.3.5-.4 1.1-.6 1.7-.8.6-.2 1.3-.3 2-.3.4 0 .7 0 1 0 .3 0 .6.1.8.1.3 0 .5.1.7.2s.5.2.7.3c.2.1.5.3.7.5s.5.4.8.6l-1.4 1.9c-.3-.3-.6-.6-.9-.8-.3-.2-.6-.4-.8-.5-.3-.1-.6-.2-.9-.2s-.6-.1-1-.1c-.6 0-1.2.1-1.7.4-.5.3-.9.7-1.2 1.2-.3.5-.6 1.1-.8 1.7s-.3 1.4-.3 2.2c0 .8.1 1.6.2 2.3s.4 1.4.7 1.9.7 1 1.3 1.3c.5.3 1.1.5 1.9.5.2 0 .4 0 .6 0 .2 0 .5 0 .7-.1.2 0 .5-.1.7-.1.2 0 .4-.1.6-.1v-5.1h2.6V94.5z" fill="#ffffff"/><path d="M82.1 80.4c1.4 0 2.6.2 3.5.6 1 .4 1.7.9 2.4 1.6.6.7 1 1.4 1.3 2.3.3.9.4 1.8.4 2.8 0 .7-.1 1.4-.2 2S89.2 91 89 91.6c-.3.6-.6 1.1-1 1.6s-.9.9-1.5 1.2-1.2.6-2 .8c-.8.2-1.6.3-2.6.3h-3.7v-15H82.1zM81 82.4v11.1h.8c.7 0 1.4-.1 2.1-.4.6-.2 1.2-.6 1.6-1.1.5-.5.8-1.1 1.1-1.8s.4-1.6.4-2.6c0-.7-.1-1.3-.3-2-.2-.6-.5-1.2-.9-1.7-.4-.5-.9-.9-1.5-1.2s-1.4-.5-2.3-.5H81z" fill="#ffffff"/><path d="M95 89.7v5.8h-2.6v-15h4.3c1 0 1.8.1 2.5.3s1.3.5 1.7.9c.5.4.8.9 1 1.4.2.5.3 1.1.3 1.8 0 .2 0 .5-.1.9-.1.3-.2.7-.3 1-.2.4-.4.7-.7 1s-.6.6-1.1.9-1 .5-1.6.7c-.6.2-1.3.2-2.2.2H95zM95 87.7l1.3 0c.5 0 .9-.1 1.3-.2.4-.1.7-.3 1-.5.3-.2.5-.5.7-.9.2-.3.2-.7.2-1.2 0-.4-.1-.7-.2-1-.1-.3-.3-.6-.5-.8s-.6-.4-1-.6c-.4-.1-.9-.2-1.5-.2H95V87.7z" fill="#ffffff"/><path d="M107.1 95.5h-2.6v-15h4.3c1 0 1.8.1 2.5.3s1.3.5 1.7.8c.5.4.8.8 1 1.3.2.5.3 1.1.3 1.7 0 .4-.1.9-.2 1.3s-.3.9-.6 1.3c-.3.4-.6.8-1.1 1.1-.5.3-1 .6-1.7.8l4.6 6.4h-3l-4-6.1c-.2 0-.3 0-.5 0-.2 0-.4 0-.7-.1L107.1 95.5zM107.1 87.3c.2 0 .4 0 .6 0 .2 0 .4 0 .6 0 .5 0 1-.1 1.4-.2.4-.1.8-.3 1.1-.5.3-.2.5-.5.7-.8.2-.3.2-.7.2-1.1s-.1-.8-.2-1.1-.3-.5-.5-.7-.6-.3-1-.4-1-.1-1.6-.1h-1.2V87.3z" fill="#ffffff"/><g fill="#f7bc37"><path d="M89.6 55.7 90.7 59 94.1 59 91.4 61 92.4 64.2 89.6 62.2 86.9 64.2 87.9 61 85.2 59 88.6 59Z"/><path d="M101.3 58.9 102.4 62.1 105.8 62.1 103 64.1 104.1 67.4 101.3 65.4 98.6 67.4 99.6 64.1 96.8 62.1 100.3 62.1Z"/><path d="M111 67.4 112 70.6 115.4 70.6 112.7 72.6 113.7 75.9 111 73.9 108.2 75.9 109.3 72.6 106.5 70.6 109.9 70.6Z"/><path d="M89.6 109.6 90.7 112.9 94.1 112.9 91.4 114.9 92.4 118.1 89.6 116.1 86.9 118.1 87.9 114.9 85.2 112.9 88.6 112.9Z"/><path d="M101.3 106.8 102.4 110 105.8 110 103 112 104.1 115.3 101.3 113.3 98.6 115.3 99.6 112 96.8 110 100.3 110Z"/><path d="M111 99.8 112 103.1 115.4 103.1 112.7 105.1 113.7 108.3 111 106.3 108.2 108.3 109.3 105.1 106.5 103.1 109.9 103.1Z"/><path d="M78 58.9 76.9 62.1 73.5 62.1 76.3 64.1 75.2 67.4 78 65.4 80.7 67.4 79.7 64.1 82.4 62.1 79 62.1Z"/><path d="M68.3 67.4 67.3 70.6 63.9 70.6 66.6 72.6 65.6 75.9 68.3 73.9 71.1 75.9 70 72.6 72.8 70.6 69.4 70.6Z"/><path d="M78 106.8 76.9 110 73.5 110 76.3 112 75.2 115.3 78 113.3 80.7 115.3 79.7 112 82.4 110 79 110Z"/><path d="M68.3 99.8 67.3 103.1 63.9 103.1 66.6 105.1 65.6 108.3 68.3 106.3 71.1 108.3 70 105.1 72.8 103.1 69.4 103.1Z"/></g></svg>